<svg width="80" height="80" viewBox="0 0 80 80" fill="none" xmlns="http://www.w3.org/2000/svg">
<path fill-rule="evenodd" clip-rule="evenodd" d="M1.45578e-05 0.00695858L7.62997e-06 79.9934C0.682129 79.9932 1.34826 79.9931 2.00001 79.993C2.6818 79.9929 3.34785 79.9929 4.00001 79.9928C10.3024 79.9924 15.3068 79.9941 20.6746 79.996C26.1496 79.9979 32.0026 80 39.9966 80C62.0899 80 80 62.0914 80 40C80 17.9086 62.0899 6.049e-06 39.9966 4.09947e-06C28.061 3.04627e-06 22.0184 0.00203193 16.462 0.00390064C11.7333 0.00548714 7.35683 0.00695923 1.45578e-05 0.00695858ZM4.00001 75.9928C10.3022 75.9924 15.3086 75.9941 20.6778 75.996C26.1536 75.9979 32.0067 76 39.9966 76C59.8811 76 76 59.8819 76 40C76 20.1181 59.8811 4.00001 39.9966 4C28.9505 4 22.9522 4.00174 17.7152 4.00348L16.4642 4.00389C12.66 4.00517 9.08357 4.00638 4.00001 4.0068L4.00001 75.9928Z" fill="#f5ba58"/>
</svg>
